<svg xmlns="http://www.w3.org/2000/svg" width="900" height="450" viewBox="0 0 900 450" fill="none">
  <defs>
    <linearGradient id="pb" x1="0" y1="0" x2="900" y2="450" gradientUnits="userSpaceOnUse">
      <stop stop-color="#0f172a"/>
      <stop offset="1" stop-color="#172554"/>
    </linearGradient>
    <linearGradient id="acc" x1="0" y1="0" x2="1" y2="1">
      <stop stop-color="#22d3ee"/>
      <stop offset="1" stop-color="#6366f1"/>
    </linearGradient>
  </defs>
  <rect width="900" height="450" fill="url(#pb)"/>
  <g opacity="0.9">
    <circle cx="320" cy="200" r="44" fill="#1e293b" stroke="url(#acc)" stroke-width="2"/>
    <circle cx="450" cy="170" r="52" fill="#1e293b" stroke="url(#acc)" stroke-width="2.5"/>
    <circle cx="580" cy="200" r="44" fill="#1e293b" stroke="url(#acc)" stroke-width="2"/>
  </g>
  <path d="M364 200 Q400 240 398 268" stroke="url(#acc)" stroke-width="2" fill="none" opacity="0.5"/>
  <path d="M502 210 Q520 250 518 278" stroke="url(#acc)" stroke-width="2" fill="none" opacity="0.5"/>
  <path d="M536 200 Q500 240 502 268" stroke="url(#acc)" stroke-width="2" fill="none" opacity="0.5"/>
  <rect x="300" y="300" width="300" height="56" rx="14" fill="#1e293b" stroke="#334155" stroke-width="1"/>
  <rect x="320" y="318" width="180" height="8" rx="4" fill="#475569"/>
  <rect x="320" y="334" width="120" height="8" rx="4" fill="#334155"/>
  <circle cx="560" cy="328" r="10" fill="url(#acc)" opacity="0.85"/>
  <circle cx="548" cy="322" r="3" fill="#e2e8f0"/>
  <circle cx="560" cy="318" r="3" fill="#e2e8f0"/>
  <circle cx="572" cy="322" r="3" fill="#e2e8f0"/>
  <text x="450" y="130" text-anchor="middle" fill="#64748b" font-family="system-ui,sans-serif" font-size="12" letter-spacing="0.25em">COHORT</text>
</svg>
